<svg xmlns="http://www.w3.org/2000/svg" width="27" height="27" viewBox="0 0 27 27" shape-rendering="crispEdges"><rect width="27" height="27" fill="#fff"/><g fill="#000"><rect x="1" y="1" width="7" height="1"/><rect x="9" y="1" width="3" height="1"/><rect x="14" y="1" width="2" height="1"/><rect x="19" y="1" width="7" height="1"/><rect x="1" y="2" width="1" height="1"/><rect x="7" y="2" width="1" height="1"/><rect x="9" y="2" width="2" height="1"/><rect x="14" y="2" width="2" height="1"/><rect x="19" y="2" width="1" height="1"/><rect x="25" y="2" width="1" height="1"/><rect x="1" y="3" width="1" height="1"/><rect x="3" y="3" width="3" height="1"/><rect x="7" y="3" width="1" height="1"/><rect x="9" y="3" width="1" height="1"/><rect x="13" y="3" width="3" height="1"/><rect x="19" y="3" width="1" height="1"/><rect x="21" y="3" width="3" height="1"/><rect x="25" y="3" width="1" height="1"/><rect x="1" y="4" width="1" height="1"/><rect x="3" y="4" width="3" height="1"/><rect x="7" y="4" width="1" height="1"/><rect x="11" y="4" width="1" height="1"/><rect x="14" y="4" width="1" height="1"/><rect x="16" y="4" width="2" height="1"/><rect x="19" y="4" width="1" height="1"/><rect x="21" y="4" width="3" height="1"/><rect x="25" y="4" width="1" height="1"/><rect x="1" y="5" width="1" height="1"/><rect x="3" y="5" width="3" height="1"/><rect x="7" y="5" width="1" height="1"/><rect x="9" y="5" width="4" height="1"/><rect x="14" y="5" width="2" height="1"/><rect x="19" y="5" width="1" height="1"/><rect x="21" y="5" width="3" height="1"/><rect x="25" y="5" width="1" height="1"/><rect x="1" y="6" width="1" height="1"/><rect x="7" y="6" width="1" height="1"/><rect x="10" y="6" width="2" height="1"/><rect x="19" y="6" width="1" height="1"/><rect x="25" y="6" width="1" height="1"/><rect x="1" y="7" width="7" height="1"/><rect x="9" y="7" width="1" height="1"/><rect x="11" y="7" width="1" height="1"/><rect x="13" y="7" width="1" height="1"/><rect x="15" y="7" width="1" height="1"/><rect x="17" y="7" width="1" height="1"/><rect x="19" y="7" width="7" height="1"/><rect x="11" y="8" width="4" height="1"/><rect x="16" y="8" width="2" height="1"/><rect x="1" y="9" width="1" height="1"/><rect x="4" y="9" width="7" height="1"/><rect x="13" y="9" width="1" height="1"/><rect x="16" y="9" width="1" height="1"/><rect x="18" y="9" width="1" height="1"/><rect x="21" y="9" width="1" height="1"/><rect x="23" y="9" width="3" height="1"/><rect x="2" y="10" width="1" height="1"/><rect x="5" y="10" width="1" height="1"/><rect x="9" y="10" width="1" height="1"/><rect x="13" y="10" width="4" height="1"/><rect x="18" y="10" width="1" height="1"/><rect x="20" y="10" width="5" height="1"/><rect x="1" y="11" width="1" height="1"/><rect x="3" y="11" width="2" height="1"/><rect x="6" y="11" width="2" height="1"/><rect x="13" y="11" width="2" height="1"/><rect x="16" y="11" width="5" height="1"/><rect x="22" y="11" width="1" height="1"/><rect x="25" y="11" width="1" height="1"/><rect x="1" y="12" width="3" height="1"/><rect x="6" y="12" width="1" height="1"/><rect x="8" y="12" width="1" height="1"/><rect x="10" y="12" width="4" height="1"/><rect x="15" y="12" width="1" height="1"/><rect x="17" y="12" width="9" height="1"/><rect x="1" y="13" width="2" height="1"/><rect x="4" y="13" width="2" height="1"/><rect x="7" y="13" width="1" height="1"/><rect x="9" y="13" width="2" height="1"/><rect x="12" y="13" width="1" height="1"/><rect x="16" y="13" width="2" height="1"/><rect x="19" y="13" width="2" height="1"/><rect x="25" y="13" width="1" height="1"/><rect x="1" y="14" width="1" height="1"/><rect x="3" y="14" width="2" height="1"/><rect x="6" y="14" width="1" height="1"/><rect x="8" y="14" width="3" height="1"/><rect x="13" y="14" width="2" height="1"/><rect x="16" y="14" width="2" height="1"/><rect x="21" y="14" width="1" height="1"/><rect x="24" y="14" width="1" height="1"/><rect x="1" y="15" width="2" height="1"/><rect x="5" y="15" width="4" height="1"/><rect x="10" y="15" width="1" height="1"/><rect x="14" y="15" width="1" height="1"/><rect x="16" y="15" width="4" height="1"/><rect x="21" y="15" width="5" height="1"/><rect x="1" y="16" width="1" height="1"/><rect x="3" y="16" width="3" height="1"/><rect x="13" y="16" width="1" height="1"/><rect x="15" y="16" width="1" height="1"/><rect x="18" y="16" width="3" height="1"/><rect x="22" y="16" width="2" height="1"/><rect x="25" y="16" width="1" height="1"/><rect x="1" y="17" width="1" height="1"/><rect x="4" y="17" width="1" height="1"/><rect x="6" y="17" width="9" height="1"/><rect x="17" y="17" width="5" height="1"/><rect x="23" y="17" width="2" height="1"/><rect x="9" y="18" width="2" height="1"/><rect x="12" y="18" width="1" height="1"/><rect x="17" y="18" width="1" height="1"/><rect x="21" y="18" width="1" height="1"/><rect x="23" y="18" width="2" height="1"/><rect x="1" y="19" width="7" height="1"/><rect x="9" y="19" width="1" height="1"/><rect x="13" y="19" width="3" height="1"/><rect x="17" y="19" width="1" height="1"/><rect x="19" y="19" width="1" height="1"/><rect x="21" y="19" width="1" height="1"/><rect x="25" y="19" width="1" height="1"/><rect x="1" y="20" width="1" height="1"/><rect x="7" y="20" width="1" height="1"/><rect x="9" y="20" width="4" height="1"/><rect x="14" y="20" width="1" height="1"/><rect x="16" y="20" width="2" height="1"/><rect x="21" y="20" width="1" height="1"/><rect x="25" y="20" width="1" height="1"/><rect x="1" y="21" width="1" height="1"/><rect x="3" y="21" width="3" height="1"/><rect x="7" y="21" width="1" height="1"/><rect x="9" y="21" width="1" height="1"/><rect x="12" y="21" width="2" height="1"/><rect x="15" y="21" width="7" height="1"/><rect x="1" y="22" width="1" height="1"/><rect x="3" y="22" width="3" height="1"/><rect x="7" y="22" width="1" height="1"/><rect x="9" y="22" width="1" height="1"/><rect x="11" y="22" width="1" height="1"/><rect x="13" y="22" width="4" height="1"/><rect x="18" y="22" width="2" height="1"/><rect x="24" y="22" width="2" height="1"/><rect x="1" y="23" width="1" height="1"/><rect x="3" y="23" width="3" height="1"/><rect x="7" y="23" width="1" height="1"/><rect x="12" y="23" width="2" height="1"/><rect x="15" y="23" width="2" height="1"/><rect x="18" y="23" width="1" height="1"/><rect x="21" y="23" width="5" height="1"/><rect x="1" y="24" width="1" height="1"/><rect x="7" y="24" width="1" height="1"/><rect x="10" y="24" width="1" height="1"/><rect x="13" y="24" width="1" height="1"/><rect x="15" y="24" width="1" height="1"/><rect x="20" y="24" width="2" height="1"/><rect x="23" y="24" width="3" height="1"/><rect x="1" y="25" width="7" height="1"/><rect x="9" y="25" width="1" height="1"/><rect x="11" y="25" width="2" height="1"/><rect x="17" y="25" width="2" height="1"/><rect x="22" y="25" width="1" height="1"/><rect x="25" y="25" width="1" height="1"/></g></svg>